<?xml version="1.0" standalone="no"?>
<!DOCTYPE svg PUBLIC "-//W3C//DTD SVG 20010904//EN"
 "http://www.w3.org/TR/2001/REC-SVG-20010904/DTD/svg10.dtd">
<svg version="1.0" xmlns="http://www.w3.org/2000/svg"
 width="1260.000000pt" height="266.000000pt" viewBox="0 0 1260.000000 266.000000"
 preserveAspectRatio="xMidYMid meet">
<metadata>
Created by potrace 1.16, written by Peter Selinger 2001-2019
</metadata>
<g transform="translate(0.000000,266.000000) scale(0.100000,-0.100000)"
fill="#000000" stroke="none">
<path d="M3750 2171 c-268 -37 -472 -239 -539 -534 -37 -159 -35 -327 5 -497
71 -295 310 -484 614 -485 161 0 276 37 395 128 107 80 201 234 247 402 32
118 32 353 0 480 -66 263 -215 428 -434 484 -88 23 -213 32 -288 22z m220 -54
c73 -27 172 -126 222 -222 141 -270 139 -703 -3 -976 -163 -312 -512 -314
-689 -4 -74 130 -111 280 -111 460 0 134 7 187 53 378 26 112 37 138 80 203
54 81 99 123 167 155 91 43 177 45 281 6z"/>
<path d="M10350 2173 c-314 -46 -489 -215 -566 -548 -29 -125 -25 -349 9 -477
37 -139 86 -228 177 -319 119 -120 248 -171 430 -171 121 -1 188 14 270 57
158 85 170 90 188 79 9 -6 23 -29 30 -50 7 -21 20 -46 27 -54 13 -12 15 17 15
232 0 238 -5 278 -30 252 -5 -5 -16 -52 -24 -104 -22 -130 -69 -226 -139 -282
-178 -141 -414 -137 -571 12 -64 61 -104 132 -150 271 -46 139 -60 243 -53
398 11 223 95 467 199 570 65 67 134 94 245 99 152 7 255 -31 348 -129 63 -65
98 -135 116 -230 12 -65 31 -99 56 -99 21 0 14 464 -7 468 -10 2 -23 -17 -38
-58 -18 -44 -29 -60 -43 -60 -10 0 -66 27 -123 60 -59 34 -125 64 -152 69 -59
12 -179 20 -214 14z"/>
<path d="M126 2138 c-18 -14 -17 -15 10 -26 16 -6 46 -16 67 -22 21 -7 44 -22
52 -33 18 -29 32 -1103 16 -1211 -12 -82 -37 -113 -97 -123 -21 -3 -47 -11
-56 -18 -14 -9 42 -13 268 -18 376 -8 475 4 586 75 127 80 206 259 181 410
-32 188 -121 298 -283 349 -51 17 -101 22 -239 26 l-174 6 5 241 c5 258 9 279
56 298 15 5 95 11 178 11 141 0 155 -1 200 -24 40 -20 54 -34 76 -79 15 -30
32 -84 37 -119 6 -35 18 -75 28 -90 l18 -26 7 90 c3 50 8 134 10 188 l3 97
-385 0 c-212 0 -421 3 -465 6 -61 4 -84 3 -99 -8z m625 -642 c76 -26 120 -66
152 -135 64 -142 71 -275 21 -432 -22 -71 -33 -91 -75 -131 -111 -109 -324
-118 -376 -17 -9 18 -13 117 -13 376 l0 352 33 4 c54 8 216 -3 258 -17z"/>
<path d="M1862 2130 c2 -8 24 -19 53 -26 73 -17 82 -22 96 -55 29 -72 -22
-661 -87 -989 -16 -83 -94 -255 -139 -309 -32 -38 -79 -61 -124 -61 -55 0 -61
8 -30 41 33 36 46 90 30 125 -25 56 -125 66 -179 19 -24 -21 -27 -31 -27 -85
0 -57 3 -64 31 -90 59 -52 182 -61 265 -19 119 60 211 259 253 549 9 58 25
229 36 380 33 447 37 468 98 491 15 6 73 9 129 7 97 -3 104 -5 130 -31 l28
-27 2 -618 c2 -477 0 -622 -10 -641 -20 -39 -58 -61 -117 -68 -54 -6 -80 -17
-80 -34 0 -5 128 -9 285 -9 157 0 285 4 285 9 0 15 -23 29 -67 40 -24 7 -55
22 -70 35 l-28 24 0 614 c0 337 3 626 8 641 8 30 47 52 110 62 28 5 37 10 35
22 -3 15 -46 17 -461 17 -399 1 -457 -1 -455 -14z"/>
<path d="M5715 2143 c-37 -9 -37 -21 2 -33 67 -22 83 -36 83 -79 0 -21 -10
-56 -22 -79 -31 -56 -272 -366 -326 -419 -44 -43 -115 -73 -174 -73 l-28 0 0
275 c0 343 3 354 109 371 22 4 46 13 52 20 10 12 -30 14 -255 14 -165 0 -266
-4 -266 -10 0 -5 26 -17 57 -26 74 -22 90 -32 103 -68 16 -46 13 -1213 -4
-1251 -10 -24 -25 -35 -81 -55 -38 -14 -68 -29 -67 -35 1 -6 95 -10 257 -10
163 0 255 4 256 10 1 6 -26 19 -60 30 -102 34 -96 9 -96 373 l0 317 109 3
c100 2 114 1 161 -23 79 -38 97 -72 149 -282 26 -100 65 -232 87 -293 46 -123
63 -140 157 -161 42 -8 62 -8 106 5 62 18 126 71 126 105 0 27 -4 27 -48 -8
-54 -44 -86 -48 -116 -18 -28 28 -50 96 -101 317 -19 85 -47 179 -61 207 -46
95 -132 150 -274 177 -46 9 -86 18 -88 21 -7 7 424 548 454 570 15 11 59 36
97 55 39 19 71 40 71 45 1 10 -330 17 -369 8z"/>
<path d="M11357 2130 c-7 -33 6 -376 16 -394 9 -19 10 -18 22 5 7 13 20 67 30
119 25 136 62 198 129 219 29 10 211 31 262 31 l24 0 0 -627 c0 -410 -4 -641
-11 -666 -12 -45 -49 -71 -126 -88 -29 -7 -58 -18 -64 -26 -10 -11 40 -13 296
-13 260 0 306 2 296 14 -6 7 -34 17 -63 20 -70 10 -107 31 -124 71 -20 48 -21
1315 -1 1315 6 0 65 -5 130 -10 99 -7 125 -13 162 -34 56 -33 89 -99 109 -221
10 -58 22 -96 34 -108 19 -18 19 -14 24 190 3 114 4 210 2 211 -1 2 -259 5
-573 5 -500 2 -571 0 -574 -13z"/>
<path d="M6510 2130 c0 -5 19 -14 43 -20 75 -19 95 -31 109 -63 20 -48 19
-1232 -1 -1270 -16 -29 -66 -57 -104 -57 -13 0 -30 -7 -37 -15 -11 -13 18 -15
249 -15 143 0 261 4 261 8 0 5 -28 17 -62 28 -110 34 -102 -6 -106 582 -2 279
-1 558 3 621 7 105 9 115 35 145 l28 31 254 3 c294 4 321 0 346 -56 15 -33 17
-97 17 -627 0 -324 -4 -607 -8 -627 -9 -42 -35 -61 -99 -73 -21 -4 -42 -13
-49 -21 -10 -12 27 -14 250 -14 143 0 261 4 261 9 0 4 -26 16 -57 25 -32 9
-63 19 -69 24 -33 22 -34 50 -34 672 l0 622 29 29 c16 16 38 29 49 29 28 0 82
20 82 31 0 5 -289 9 -695 9 -438 0 -695 -4 -695 -10z"/>
<path d="M8710 2120 c-166 -31 -293 -135 -350 -288 -46 -123 -63 -371 -35
-507 63 -302 334 -463 635 -379 183 52 297 185 336 395 20 103 14 333 -10 422
-62 226 -214 347 -456 361 -41 3 -95 1 -120 -4z m195 -54 c61 -28 98 -70 137
-153 42 -90 60 -201 61 -393 0 -137 -3 -180 -21 -252 -48 -197 -146 -308 -272
-308 -89 0 -169 61 -226 172 -76 150 -77 584 -2 786 54 143 195 208 323 148z"/>
<path d="M8112 183 l3 -68 623 -3 622 -2 0 70 0 70 -625 0 -626 0 3 -67z"/>
</g>
</svg>
